<svg id="Capa_1" enable-background="new 0 0 512.013 512.013" height="512" fill="#fff" viewBox="0 0 512.013 512.013" width="512" xmlns="http://www.w3.org/2000/svg"><g><path d="m80.875 491.411c19.86 13.093 45.422 20.602 70.131 20.602h210c24.709 0 50.271-7.509 70.131-20.602 22.16-14.609 34.869-34.801 34.869-55.398 0-31.565-7.667-48.675-15.082-65.221-7.672-17.121-14.918-33.292-14.918-69.479v-.3c0-76.841-48.787-145.784-122.454-170.588 5.297-8.108 11.813-15.76 18.248-23.063 12.228-13.879 24.526-30.66 23.02-49.886-1.317-16.806-12.228-30.891-28.207-46.869l-10.606-10.607-10.607 10.607c-10.694 10.693-28.093 10.693-38.787 0l-10.606-10.607-10.607 10.607c-10.694 10.693-28.093 10.693-38.787 0l-10.606-10.607-10.607 10.607c-15.979 15.978-26.89 30.063-28.207 46.869-1.506 19.226 10.792 36.006 23.02 49.886 6.436 7.305 12.953 14.958 18.251 23.069-71.037 23.918-122.458 90.753-122.458 170.583 0 36.389-7.26 52.622-14.946 69.808-7.401 16.549-15.054 33.663-15.054 65.192.001 20.596 12.71 40.788 34.869 55.397zm106.227-431.592c.367-4.688 3.724-10.603 10.652-18.581 8.522 4.831 18.19 7.401 28.253 7.401 10.757 0 21.062-2.937 30-8.433 8.938 5.496 19.243 8.433 30 8.433 10.063 0 19.73-2.571 28.253-7.401 6.928 7.978 10.284 13.893 10.651 18.581.49 6.253-4.474 15.058-15.621 27.71-9.425 10.697-19.044 22.141-26.222 35.451-8.857-1.349-18.103-1.967-27.062-1.967-9.52 0-18.758.706-27.062 1.967-7.178-13.31-16.797-24.753-26.222-35.451-11.146-12.652-16.11-21.457-15.62-27.71zm-98.655 323.249c8.231-18.404 17.56-39.264 17.56-82.055 0-84.123 68.23-150 150-150 84.09 0 150 68.988 150 150v.3c0 42.601 9.319 63.398 17.542 81.747 6.685 14.918 12.458 27.802 12.458 52.953 0 10.331-7.793 21.394-21.381 30.352-15.085 9.945-34.628 15.648-53.619 15.648h-210c-18.991 0-38.534-5.704-53.619-15.648-13.588-8.958-21.381-20.021-21.381-30.352 0-25.127 5.765-38.018 12.44-52.945z"/><path d="m256.007 361.015c-8.271 0-15-6.729-15-15h-30c0 19.554 12.541 36.227 30 42.419v32.579h30v-32.579c17.459-6.192 30-22.865 30-42.42 0-24.813-20.187-45-45-45-8.271 0-15-6.729-15-15s6.729-15 15-15 15 6.729 15 14.999h30c0-19.554-12.542-36.227-30-42.418v-32.582h-30v32.582c-17.458 6.192-30 22.865-30 42.419 0 24.813 20.187 45 45 45 8.271 0 15 6.729 15 15s-6.729 15.001-15 15.001z"/></g></svg>